<svg xmlns="http://www.w3.org/2000/svg" viewBox="0 0 512 512" role="img" aria-label="anime girl avatar"><defs><linearGradient id="bg" x1="0" y1="0" x2="1" y2="1"><stop offset="0" stop-color="#0b1220"/><stop offset="1" stop-color="#12283a"/></linearGradient><linearGradient id="hair" x1="0" y1="0" x2="1" y2="1"><stop offset="0" stop-color="#202739"/><stop offset="1" stop-color="#080b12"/></linearGradient><linearGradient id="accent" x1="0" y1="0" x2="1" y2="1"><stop offset="0" stop-color="#58d9ff"/><stop offset="1" stop-color="#7cf7c8"/></linearGradient></defs><rect width="512" height="512" rx="96" fill="url(#bg)"/><g opacity=".16" stroke="#7cf7c8" stroke-width="2"><path d="M64 126h384M64 204h384M64 282h384M64 360h384M126 64v384M204 64v384M282 64v384M360 64v384"/></g><circle cx="256" cy="244" r="142" fill="#101827" opacity=".72"/><path d="M146 228c0-94 54-154 111-154 72 0 120 58 120 154 0 104-52 178-116 178-67 0-115-74-115-178z" fill="url(#hair)"/><path d="M177 232c5-74 36-118 84-118 50 0 78 43 84 118-21-19-45-38-88-38-39 0-61 18-80 38z" fill="#111827"/><path d="M165 254c-16-3-28 10-24 30 4 19 20 31 36 25M347 254c16-3 28 10 24 30-4 19-20 31-36 25" fill="#f0b8a5"/><path d="M174 214c0-58 34-98 84-98s80 40 80 98v62c0 61-36 105-82 105-48 0-82-44-82-105v-62z" fill="#ffd1bf"/><path d="M174 216c43-3 80-22 112-62 17 35 38 55 53 62-4-63-39-109-84-109-47 0-80 46-81 109z" fill="url(#hair)"/><path d="M191 159c25-56 82-71 133-37-27-43-97-58-142-11-22 23-34 56-33 101 12-25 24-41 42-53z" fill="#222d43"/><path d="M214 258c12-11 29-11 41 0M281 258c12-11 29-11 41 0" fill="none" stroke="#273047" stroke-width="8" stroke-linecap="round"/><circle cx="234" cy="268" r="8" fill="#111827"/><circle cx="302" cy="268" r="8" fill="#111827"/><path d="M258 276l-8 30h18" fill="none" stroke="#d88f83" stroke-width="5" stroke-linecap="round" stroke-linejoin="round"/><path d="M233 330c18 14 48 14 66 0" fill="none" stroke="#ab5a63" stroke-width="7" stroke-linecap="round"/><path d="M204 246c20-13 43-12 57 4M275 250c15-16 39-17 59-4" fill="none" stroke="#0a0f18" stroke-width="6" stroke-linecap="round" opacity=".5"/><circle cx="234" cy="268" r="27" fill="none" stroke="#58d9ff" stroke-width="6" opacity=".8"/><circle cx="302" cy="268" r="27" fill="none" stroke="#58d9ff" stroke-width="6" opacity=".8"/><path d="M261 268h14" stroke="#58d9ff" stroke-width="6" stroke-linecap="round"/><path d="M155 430c21-56 55-84 101-84 48 0 84 28 102 84H155z" fill="#111827"/><path d="M210 360l46 70 47-70" fill="none" stroke="url(#accent)" stroke-width="16" stroke-linecap="round" stroke-linejoin="round"/><rect x="325" y="344" width="78" height="54" rx="10" fill="#0b111a" stroke="#58d9ff" stroke-width="4"/><circle cx="364" cy="371" r="8" fill="#7cf7c8"/><path d="M113 96l36 18M388 99l-31 22M92 384l34-16M420 383l-34-18" stroke="url(#accent)" stroke-width="10" stroke-linecap="round" opacity=".75"/></svg>